<?xml version="1.0" standalone="no"?>
<!DOCTYPE svg PUBLIC "-//W3C//DTD SVG 20010904//EN"
 "http://www.w3.org/TR/2001/REC-SVG-20010904/DTD/svg10.dtd">
<svg version="1.0" xmlns="http://www.w3.org/2000/svg"
 width="503.000000pt" height="496.000000pt" viewBox="0 0 503.000000 496.000000"
 preserveAspectRatio="xMidYMid meet">

<g transform="translate(0.000000,496.000000) scale(0.100000,-0.100000)"
fill="#000000" stroke="none">
<path d="M658 3253 c7 -3 16 -2 19 1 4 3 -2 6 -13 5 -11 0 -14 -3 -6 -6z"/>
<path d="M1343 3253 c82 -2 212 -2 290 0 78 1 12 3 -148 3 -159 0 -223 -2
-142 -3z"/>
<path d="M1928 3253 c12 -2 32 -2 45 0 12 2 2 4 -23 4 -25 0 -35 -2 -22 -4z"/>
<path d="M3233 3253 c26 -2 68 -2 95 0 26 2 4 3 -48 3 -52 0 -74 -1 -47 -3z"/>
<path d="M3678 3253 c7 -3 16 -2 19 1 4 3 -2 6 -13 5 -11 0 -14 -3 -6 -6z"/>
<path d="M2010 3242 c0 -6 -8 -9 -17 -6 -10 2 -8 -1 5 -7 25 -14 42 -5 24 13
-9 9 -12 9 -12 0z"/>
<path d="M2070 3240 c-12 -8 -10 -10 8 -10 13 0 20 4 17 10 -7 12 -6 12 -25 0z"/>
<path d="M1378 3233 c56 -2 148 -2 205 0 56 1 10 3 -103 3 -113 0 -159 -2
-102 -3z"/>
<path d="M3798 3233 c6 -2 18 -2 25 0 6 3 1 5 -13 5 -14 0 -19 -2 -12 -5z"/>
<path d="M3895 3230 c-3 -5 -1 -10 4 -10 6 0 11 5 11 10 0 6 -2 10 -4 10 -3 0
-8 -4 -11 -10z"/>
<path d="M2100 3220 c-11 -7 -5 -9 20 -5 25 4 29 3 15 -3 -15 -7 -10 -9 23 -9
42 0 42 0 16 13 -31 16 -53 17 -74 4z"/>
<path d="M3850 3220 c0 -5 -13 -7 -29 -4 -16 3 -36 2 -44 -2 -10 -6 6 -9 46
-10 34 -1 56 0 49 3 -6 3 -10 9 -6 14 3 5 0 9 -5 9 -6 0 -11 -4 -11 -10z"/>
<path d="M3916 3215 c-3 -10 4 -13 24 -13 32 1 32 13 1 21 -11 3 -22 -1 -25
-8z"/>
<path d="M720 3212 c0 -10 146 -9 156 1 4 4 -29 7 -74 7 -45 0 -82 -4 -82 -8z"/>
<path d="M1040 3212 c0 -4 38 -7 84 -7 46 0 82 3 80 7 -3 5 -41 8 -85 8 -43 0
-79 -3 -79 -8z"/>
<path d="M1763 3214 c10 -10 67 -12 73 -3 3 5 -14 9 -37 9 -23 0 -40 -3 -36
-6z"/>
<path d="M1935 3210 c-3 -5 -2 -10 4 -10 5 0 13 5 16 10 3 6 2 10 -4 10 -5 0
-13 -4 -16 -10z"/>
<path d="M2540 3213 c0 -5 5 -15 11 -23 9 -13 10 -13 6 1 -5 14 5 16 74 14 44
-1 82 2 85 7 3 4 -36 8 -85 8 -50 0 -91 -3 -91 -7z"/>
<path d="M2960 3212 c0 -10 236 -9 246 1 4 4 -50 7 -119 7 -70 0 -127 -4 -127
-8z"/>
<path d="M3352 3215 c10 -10 78 -13 84 -4 3 5 -16 9 -42 9 -26 0 -45 -2 -42
-5z"/>
<path d="M3520 3212 c0 -4 36 -7 80 -7 44 -1 80 3 80 7 0 4 -36 8 -80 8 -44 0
-80 -3 -80 -8z"/>
<path d="M3705 3210 c-3 -5 -2 -10 4 -10 5 0 13 5 16 10 3 6 2 10 -4 10 -5 0
-13 -4 -16 -10z"/>
<path d="M4030 3179 c0 -5 5 -7 10 -4 6 3 10 8 10 11 0 2 -4 4 -10 4 -5 0 -10
-5 -10 -11z"/>
<path d="M2247 3163 c-13 -12 -7 -40 8 -40 18 0 20 13 3 20 -10 4 -9 8 2 16 8
6 10 11 4 11 -6 0 -14 -3 -17 -7z"/>
<path d="M4055 3160 c3 -5 13 -10 21 -10 8 0 12 -4 9 -10 -3 -6 1 -7 10 -4 12
5 13 9 4 20 -13 16 -54 19 -44 4z"/>
<path d="M3995 3150 c-3 -5 2 -10 11 -10 10 0 26 -7 36 -17 10 -9 21 -14 24
-11 7 8 -37 48 -52 48 -7 0 -16 -4 -19 -10z"/>
<path d="M2305 3130 c-3 -5 -1 -10 4 -10 6 0 11 5 11 10 0 6 -2 10 -4 10 -3 0
-8 -4 -11 -10z"/>
<path d="M4130 3130 c0 -6 7 -10 15 -10 8 0 15 2 15 4 0 2 -7 6 -15 10 -8 3
-15 1 -15 -4z"/>
<path d="M2325 3109 c-9 -14 15 -71 28 -66 6 2 13 9 15 15 2 8 -3 10 -14 5
-14 -5 -16 -3 -11 11 5 11 3 15 -5 10 -7 -5 -9 0 -6 14 7 24 3 28 -7 11z"/>
<path d="M2262 3094 c2 -11 11 -20 22 -22 13 -3 17 1 14 14 -2 11 -11 20 -22
22 -13 3 -17 -1 -14 -14z"/>
<path d="M4043 3074 c15 -8 33 -12 39 -8 14 9 -15 22 -47 23 -16 0 -15 -2 8
-15z"/>
<path d="M4161 3074 c0 -11 3 -14 6 -6 3 7 2 16 -1 19 -3 4 -6 -2 -5 -13z"/>
<path d="M4180 3084 c0 -9 32 -33 44 -34 5 0 1 9 -9 20 -18 20 -35 26 -35 14z"/>
<path d="M4180 3037 c0 -8 7 -28 15 -43 l16 -29 -3 39 c-3 36 -28 66 -28 33z"/>
<path d="M4250 2970 c-14 -33 -2 -60 28 -60 14 0 14 2 0 18 -16 18 -13 46 4
36 6 -4 8 1 6 11 -5 30 -24 28 -38 -5z"/>
<path d="M2403 2965 c0 -8 4 -12 9 -9 5 3 6 10 3 15 -9 13 -12 11 -12 -6z"/>
<path d="M2553 2935 c0 -22 2 -30 4 -17 2 12 2 30 0 40 -3 9 -5 -1 -4 -23z"/>
<path d="M4178 2946 c-20 -15 -23 -26 -8 -26 5 0 14 9 20 20 12 23 11 24 -12
6z"/>
<path d="M4295 2941 c-3 -5 -2 -12 3 -15 5 -3 9 1 9 9 0 17 -3 19 -12 6z"/>
<path d="M2400 2896 c0 -2 7 -6 15 -10 8 -3 15 -1 15 4 0 6 -7 10 -15 10 -8 0
-15 -2 -15 -4z"/>
<path d="M4210 2890 c0 -5 7 -10 15 -10 8 0 15 5 15 10 0 6 -7 10 -15 10 -8 0
-15 -4 -15 -10z"/>
<path d="M4308 2894 c-4 -3 0 -13 8 -21 10 -11 13 -25 8 -47 -8 -38 -1 -32 14
12 8 24 8 31 0 26 -8 -5 -9 -1 -5 10 4 9 3 15 -2 11 -5 -3 -11 0 -13 6 -2 5
-6 7 -10 3z"/>
<path d="M3205 2870 c3 -5 8 -10 11 -10 2 0 4 5 4 10 0 6 -5 10 -11 10 -5 0
-7 -4 -4 -10z"/>
<path d="M3260 2870 c0 -5 7 -10 15 -10 8 0 15 5 15 10 0 6 -7 10 -15 10 -8 0
-15 -4 -15 -10z"/>
<path d="M3520 2870 c0 -5 4 -10 9 -10 6 0 13 5 16 10 3 6 -1 10 -9 10 -9 0
-16 -4 -16 -10z"/>
<path d="M3590 2850 c0 -5 -16 -10 -36 -10 -21 0 -33 -4 -29 -10 3 -5 17 -10
30 -10 13 0 27 5 30 10 3 6 17 10 30 10 13 0 27 5 30 10 4 6 -7 10 -24 10 -17
0 -31 -4 -31 -10z"/>
<path d="M2413 2834 c-15 -15 -17 -60 -4 -68 4 -3 6 6 3 21 -3 17 1 30 12 39
10 6 14 14 9 17 -4 3 -14 -1 -20 -9z"/>
<path d="M3300 2830 c0 -5 13 -10 29 -10 17 0 33 5 36 10 4 6 -8 10 -29 10
-20 0 -36 -4 -36 -10z"/>
<path d="M2553 2725 c0 -44 2 -61 4 -37 2 23 2 59 0 80 -2 20 -4 1 -4 -43z"/>
<path d="M3230 2790 c0 -7 -8 -22 -17 -32 -15 -17 -15 -18 0 -13 17 7 33 42
23 52 -3 4 -6 0 -6 -7z"/>
<path d="M3280 2782 c-21 -23 4 -30 27 -7 19 18 19 21 4 21 -10 0 -24 -6 -31
-14z"/>
<path d="M3530 2780 c-6 -4 5 -7 25 -8 19 -1 35 0 35 2 0 8 -49 13 -60 6z"/>
<path d="M4350 2744 c0 -14 4 -23 9 -19 11 6 10 45 -1 45 -4 0 -8 -12 -8 -26z"/>
<path d="M3630 2730 c0 -13 5 -18 15 -14 9 4 18 -2 24 -17 6 -14 10 -18 10 -8
1 14 -33 59 -44 59 -3 0 -5 -9 -5 -20z"/>
<path d="M1340 2681 c0 -41 23 -74 33 -47 3 8 2 16 -2 18 -5 2 -12 14 -16 27
-6 18 -4 22 6 15 12 -6 12 -5 0 9 -19 24 -21 22 -21 -22z"/>
<path d="M1628 2713 c7 -3 16 -2 19 1 4 3 -2 6 -13 5 -11 0 -14 -3 -6 -6z"/>
<path d="M1714 2705 c-16 -12 -17 -16 -4 -24 19 -13 31 -4 23 16 -5 13 -2 15
11 10 10 -4 15 -3 11 3 -8 14 -18 13 -41 -5z"/>
<path d="M2290 2702 c-40 -44 -42 -50 -15 -44 15 2 25 11 25 22 0 9 10 22 23
28 20 10 20 11 2 11 -11 0 -27 -8 -35 -17z"/>
<path d="M2360 2710 c0 -5 5 -10 10 -10 6 0 10 5 10 10 0 6 -4 10 -10 10 -5 0
-10 -4 -10 -10z"/>
<path d="M1282 2685 c0 -16 2 -22 5 -12 2 9 2 23 0 30 -3 6 -5 -1 -5 -18z"/>
<path d="M2335 2673 c4 -16 3 -25 -1 -21 -4 4 -13 3 -21 -4 -11 -9 -11 -14 3
-29 15 -16 15 -19 2 -19 -17 0 -44 -27 -36 -36 8 -7 69 46 63 56 -2 4 6 19 20
34 22 24 23 26 5 26 -11 0 -20 5 -20 10 0 6 -5 10 -11 10 -7 0 -9 -10 -4 -27z"/>
<path d="M3653 2660 c0 -25 2 -35 4 -22 2 12 2 32 0 45 -2 12 -4 2 -4 -23z"/>
<path d="M4366 2684 c-3 -9 -6 -24 -6 -35 0 -10 -4 -19 -9 -19 -5 0 -7 10 -5
23 3 15 1 13 -7 -6 -14 -35 5 -93 21 -66 6 8 5 15 -1 17 -6 3 -6 8 -1 15 5 7
12 29 16 50 7 38 3 49 -8 21z"/>
<path d="M1744 2669 c-3 -6 -2 -15 3 -20 5 -5 9 -1 9 11 0 23 -2 24 -12 9z"/>
<path d="M1280 2616 c0 -8 5 -16 11 -18 10 -3 17 -25 18 -60 1 -10 8 -18 16
-18 19 0 20 49 1 56 -8 3 -17 16 -20 30 -7 26 -26 33 -26 10z"/>
<path d="M1770 2576 c0 -9 5 -16 10 -16 6 0 10 4 10 9 0 6 -4 13 -10 16 -5 3
-10 -1 -10 -9z"/>
<path d="M3627 2565 c-15 -22 -16 -25 -2 -25 8 0 15 7 15 16 0 8 5 12 10 9 6
-3 10 1 10 9 0 23 -12 19 -33 -9z"/>
<path d="M4323 2571 c0 -11 5 -18 9 -15 4 3 5 11 1 19 -7 21 -12 19 -10 -4z"/>
<path d="M2220 2552 c0 -6 -8 -13 -17 -15 -16 -4 -16 -5 -1 -6 18 -1 34 16 24
26 -3 4 -6 1 -6 -5z"/>
<path d="M3260 2539 c0 -11 5 -19 12 -17 17 6 19 38 2 38 -8 0 -14 -9 -14 -21z"/>
<path d="M2103 2533 c9 -9 20 -13 24 -9 4 4 1 11 -7 16 -25 16 -35 11 -17 -7z"/>
<path d="M2235 2530 c-3 -6 1 -7 9 -4 18 7 21 14 7 14 -6 0 -13 -4 -16 -10z"/>
<path d="M3649 2524 c-9 -11 -22 -14 -47 -9 -29 5 -32 4 -20 -8 7 -8 16 -13
20 -10 4 2 17 -1 28 -7 17 -9 20 -8 20 10 0 11 7 20 15 20 8 0 15 5 15 10 0
15 -16 12 -31 -6z"/>
<path d="M2183 2505 c0 -8 4 -12 9 -9 5 3 6 10 3 15 -9 13 -12 11 -12 -6z"/>
<path d="M3200 2506 c0 -9 7 -16 16 -16 9 0 14 5 12 12 -6 18 -28 21 -28 4z"/>
<path d="M2140 2506 c0 -2 7 -6 15 -10 8 -3 15 -1 15 4 0 6 -7 10 -15 10 -8 0
-15 -2 -15 -4z"/>
<path d="M3321 2494 c0 -11 3 -14 6 -6 3 7 2 16 -1 19 -3 4 -6 -2 -5 -13z"/>
<path d="M3340 2493 c0 -10 4 -14 8 -8 4 6 11 13 16 18 5 4 2 7 -7 7 -10 0
-17 -8 -17 -17z"/>
<path d="M3520 2495 c0 -10 9 -14 30 -12 27 2 28 3 13 15 -23 16 -43 15 -43
-3z"/>
<path d="M4325 2490 c-4 -12 -5 -24 -2 -27 3 -2 8 5 12 17 4 12 5 24 2 27 -3
2 -8 -5 -12 -17z"/>
<path d="M1734 2475 c-17 -26 -14 -42 5 -30 6 3 9 11 5 16 -3 5 0 16 6 24 7 8
10 15 6 15 -3 0 -13 -11 -22 -25z"/>
<path d="M2100 2487 c0 -7 11 -13 25 -13 19 0 22 3 13 13 -6 7 -17 13 -24 13
-8 0 -14 -6 -14 -13z"/>
<path d="M2020 2472 c-19 -9 -25 -33 -6 -26 11 4 33 37 23 33 -1 0 -9 -3 -17
-7z"/>
<path d="M2060 2470 c-9 -6 -10 -10 -3 -10 6 0 15 5 18 10 8 12 4 12 -15 0z"/>
<path d="M3255 2470 c-3 -5 3 -10 15 -10 12 0 18 5 15 10 -3 6 -10 10 -15 10
-5 0 -12 -4 -15 -10z"/>
<path d="M4250 2470 c8 -5 26 -10 39 -10 32 0 24 6 -19 14 -25 4 -31 3 -20 -4z"/>
<path d="M3320 2441 c0 -11 4 -21 9 -21 18 0 21 18 6 30 -13 10 -15 9 -15 -9z"/>
<path d="M3403 2453 c20 -2 54 -2 75 0 20 2 3 4 -38 4 -41 0 -58 -2 -37 -4z"/>
<path d="M1347 2443 c-4 -3 -7 -19 -7 -34 0 -20 4 -27 13 -23 8 3 14 18 14 34
0 29 -7 37 -20 23z"/>
<path d="M3553 2435 c-18 -8 -33 -19 -33 -25 0 -13 1 -13 38 6 58 28 53 45 -5
19z"/>
<path d="M4240 2439 c0 -5 5 -7 10 -4 6 3 10 8 10 11 0 2 -4 4 -10 4 -5 0 -10
-5 -10 -11z"/>
<path d="M1385 2430 c-3 -5 -1 -10 4 -10 6 0 11 5 11 10 0 6 -2 10 -4 10 -3 0
-8 -4 -11 -10z"/>
<path d="M1565 2428 c28 -5 64 -10 82 -10 18 -1 30 -5 27 -10 -9 -14 17 -9 32
7 13 13 12 15 -11 21 -15 4 -31 1 -40 -6 -10 -8 -19 -9 -27 -3 -7 5 -35 10
-63 10 l-50 1 50 -10z"/>
<path d="M1744 2428 c-3 -4 4 -8 15 -8 11 0 22 4 26 9 3 6 -4 9 -16 8 -11 -1
-23 -5 -25 -9z"/>
<path d="M3260 2425 c0 -8 5 -15 10 -15 6 0 10 7 10 15 0 8 -4 15 -10 15 -5 0
-10 -7 -10 -15z"/>
<path d="M1410 2410 c0 -5 7 -10 16 -10 8 0 12 5 9 10 -3 6 -10 10 -16 10 -5
0 -9 -4 -9 -10z"/>
<path d="M1780 2410 c-8 -5 -10 -10 -5 -10 6 0 17 5 25 10 8 5 11 10 5 10 -5
0 -17 -5 -25 -10z"/>
<path d="M1980 2416 c0 -2 7 -7 16 -10 8 -3 12 -2 9 4 -6 10 -25 14 -25 6z"/>
<path d="M2035 2410 c-3 -6 1 -7 9 -4 18 7 21 14 7 14 -6 0 -13 -4 -16 -10z"/>
<path d="M2106 2412 c-3 -5 1 -9 9 -9 8 0 15 4 15 9 0 4 -4 8 -9 8 -6 0 -12
-4 -15 -8z"/>
<path d="M2162 2411 c3 -23 -5 -44 -23 -62 -11 -11 -19 -28 -17 -37 3 -14 7
-12 26 8 14 15 26 21 30 14 4 -5 20 -7 37 -3 l30 7 -29 1 c-26 1 -28 3 -24 35
3 27 0 36 -14 39 -9 3 -17 2 -16 -2z"/>
<path d="M4205 2399 c-8 -12 23 -38 47 -39 9 0 20 5 23 11 4 6 1 10 -6 8 -28
-3 -39 1 -39 16 0 17 -16 20 -25 4z"/>
<path d="M1460 2390 c0 -5 12 -10 26 -10 14 0 23 4 19 10 -3 6 -15 10 -26 10
-10 0 -19 -4 -19 -10z"/>
<path d="M4160 2389 c0 -5 5 -7 10 -4 6 3 10 8 10 11 0 2 -4 4 -10 4 -5 0 -10
-5 -10 -11z"/>
<path d="M1366 2361 c-4 -7 -5 -15 -2 -18 9 -9 19 4 14 18 -4 11 -6 11 -12 0z"/>
<path d="M2205 2360 c3 -5 8 -10 11 -10 2 0 4 5 4 10 0 6 -5 10 -11 10 -5 0
-7 -4 -4 -10z"/>
<path d="M1527 2343 c-2 -5 -7 -19 -10 -33 -5 -21 -2 -26 13 -27 16 -1 20 5
20 27 0 28 -14 48 -23 33z"/>
<path d="M4191 2326 c-9 -11 -7 -15 9 -19 25 -6 35 7 16 22 -10 8 -16 8 -25
-3z"/>
<path d="M1320 2301 c0 -17 -4 -33 -10 -36 -12 -7 -13 -25 -2 -25 10 0 32 50
32 72 0 10 -4 18 -10 18 -5 0 -10 -13 -10 -29z"/>
<path d="M2215 2310 c3 -5 10 -10 16 -10 5 0 9 5 9 10 0 6 -7 10 -16 10 -8 0
-12 -4 -9 -10z"/>
<path d="M2553 2280 c0 -25 2 -35 4 -22 2 12 2 32 0 45 -2 12 -4 2 -4 -23z"/>
<path d="M1468 2298 c-4 -12 28 -88 37 -88 6 0 -4 80 -11 91 -8 13 -22 11 -26
-3z"/>
<path d="M4177 2293 c-4 -3 -7 -11 -7 -17 0 -6 5 -5 12 2 6 6 9 14 7 17 -3 3
-9 2 -12 -2z"/>
<path d="M1365 2280 c3 -5 8 -10 11 -10 2 0 4 5 4 10 0 6 -5 10 -11 10 -5 0
-7 -4 -4 -10z"/>
<path d="M2253 2265 c-7 -8 -11 -20 -9 -27 3 -7 7 -25 10 -40 4 -19 13 -28 26
-28 11 0 20 -4 20 -10 0 -5 5 -10 10 -10 6 0 10 7 10 15 0 8 -8 15 -19 15 -30
0 -43 24 -35 64 7 39 5 42 -13 21z"/>
<path d="M1551 2247 c-1 -19 3 -27 12 -24 6 2 17 -3 24 -12 11 -14 12 -12 13
11 0 21 -4 25 -19 21 -13 -3 -21 1 -24 14 -3 12 -5 8 -6 -10z"/>
<path d="M1365 2250 c3 -5 8 -10 11 -10 2 0 4 5 4 10 0 6 -5 10 -11 10 -5 0
-7 -4 -4 -10z"/>
<path d="M2165 2250 c-4 -6 5 -10 19 -10 14 0 26 5 26 10 0 6 -9 10 -19 10
-11 0 -23 -4 -26 -10z"/>
<path d="M2277 2227 c-3 -9 -2 -19 4 -23 15 -9 18 -2 9 20 -6 17 -7 18 -13 3z"/>
<path d="M3293 2233 c15 -2 37 -2 50 0 12 2 0 4 -28 4 -27 0 -38 -2 -22 -4z"/>
<path d="M3990 2229 c0 -5 5 -7 10 -4 6 3 10 8 10 11 0 2 -4 4 -10 4 -5 0 -10
-5 -10 -11z"/>
<path d="M4083 2223 c0 -9 6 -9 21 -1 30 15 30 16 3 14 -13 0 -24 -6 -24 -13z"/>
<path d="M1284 2080 c0 -85 2 -120 3 -77 2 42 2 112 0 155 -1 42 -3 7 -3 -78z"/>
<path d="M3687 2206 c-4 -10 0 -12 14 -9 22 6 26 23 5 23 -8 0 -16 -6 -19 -14z"/>
<path d="M4023 2213 c13 -8 7 -25 -7 -20 -8 3 -17 0 -20 -8 -4 -11 1 -12 25
-3 29 10 49 28 30 28 -5 0 -15 2 -23 3 -7 2 -10 2 -5 0z"/>
<path d="M3890 2195 c14 -16 46 -20 54 -6 6 8 -25 21 -53 21 -11 0 -11 -3 -1
-15z"/>
<path d="M3208 2193 c7 -3 16 -2 19 1 4 3 -2 6 -13 5 -11 0 -14 -3 -6 -6z"/>
<path d="M3260 2177 c0 -8 12 -19 27 -26 23 -11 25 -10 13 3 -10 13 -10 16 1
17 8 0 5 4 -6 9 -29 12 -35 12 -35 -3z"/>
<path d="M1517 2166 c-3 -8 1 -17 9 -20 9 -4 14 1 14 14 0 23 -15 27 -23 6z"/>
<path d="M3715 2170 c3 -5 17 -10 31 -10 15 0 24 -6 24 -15 0 -26 15 -16 16
10 2 23 -2 25 -38 25 -23 0 -37 -4 -33 -10z"/>
<path d="M1570 2152 c0 -5 7 -15 15 -22 8 -7 15 -8 15 -2 0 5 -7 15 -15 22 -8
7 -15 8 -15 2z"/>
<path d="M2553 2125 c0 -22 2 -30 4 -17 2 12 2 30 0 40 -3 9 -5 -1 -4 -23z"/>
<path d="M3428 2153 c34 -2 90 -2 125 0 34 2 6 3 -63 3 -69 0 -97 -1 -62 -3z"/>
<path d="M3847 2145 c3 -8 9 -12 14 -9 12 7 11 11 -5 17 -10 4 -13 1 -9 -8z"/>
<path d="M3888 2153 c7 -3 16 -2 19 1 4 3 -2 6 -13 5 -11 0 -14 -3 -6 -6z"/>
<path d="M3329 2134 c-11 -14 -10 -16 9 -12 13 1 23 7 23 13 1 17 -17 16 -32
-1z"/>
<path d="M3243 2113 c-21 -8 -15 -33 7 -33 13 0 20 7 20 20 0 20 -5 23 -27 13z"/>
<path d="M2325 2072 c2 -23 12 -50 21 -59 16 -16 16 -16 8 7 -4 14 -8 33 -8
43 0 9 -3 17 -7 17 -4 0 -10 8 -12 18 -3 9 -4 -2 -2 -26z"/>
<path d="M2270 2096 c0 -2 7 -6 15 -10 8 -3 15 -1 15 4 0 6 -7 10 -15 10 -8 0
-15 -2 -15 -4z"/>
<path d="M1591 2064 c0 -11 3 -14 6 -6 3 7 2 16 -1 19 -3 4 -6 -2 -5 -13z"/>
<path d="M2360 2050 c0 -5 5 -10 11 -10 5 0 7 5 4 10 -3 6 -8 10 -11 10 -2 0
-4 -4 -4 -10z"/>
<path d="M1576 2025 c4 -8 8 -15 10 -15 2 0 4 7 4 15 0 8 -4 15 -10 15 -5 0
-7 -7 -4 -15z"/>
<path d="M2240 2010 c0 -30 13 -40 25 -20 8 13 -4 50 -16 50 -5 0 -9 -13 -9
-30z"/>
<path d="M2553 1975 c0 -33 2 -45 4 -27 2 18 2 45 0 60 -2 15 -4 0 -4 -33z"/>
<path d="M1582 1986 c7 -8 15 -12 17 -11 5 6 -10 25 -20 25 -5 0 -4 -6 3 -14z"/>
<path d="M2415 1955 c5 -23 4 -27 -4 -15 -9 12 -10 9 -5 -12 6 -28 5 -28 -42
-28 -61 0 -54 -7 11 -11 43 -3 50 0 47 15 -2 10 1 23 7 29 6 8 4 19 -5 32 -15
19 -15 18 -9 -10z"/>
<path d="M631 1904 c0 -11 3 -14 6 -6 3 7 2 16 -1 19 -3 4 -6 -2 -5 -13z"/>
<path d="M1288 1913 c7 -3 16 -2 19 1 4 3 -2 6 -13 5 -11 0 -14 -3 -6 -6z"/>
<path d="M1366 1904 c-4 -9 -4 -19 -1 -22 2 -3 7 3 11 12 4 9 4 19 1 22 -2 3
-7 -3 -11 -12z"/>
<path d="M3208 1913 c7 -3 16 -2 19 1 4 3 -2 6 -13 5 -11 0 -14 -3 -6 -6z"/>
<path d="M730 1900 l-75 -6 72 -2 c39 -1 75 3 78 8 3 6 5 9 3 8 -2 -1 -37 -4
-78 -8z"/>
<path d="M2731 1900 c6 -4 121 -7 257 -7 136 -1 238 1 227 3 -38 6 -495 10
-484 4z"/>
<path d="M3275 1900 c-3 -5 -1 -10 4 -10 6 0 11 5 11 10 0 6 -2 10 -4 10 -3 0
-8 -4 -11 -10z"/>
<path d="M1143 1893 c15 -2 37 -2 50 0 12 2 0 4 -28 4 -27 0 -38 -2 -22 -4z"/>
<path d="M1638 1893 c7 -3 16 -2 19 1 4 3 -2 6 -13 5 -11 0 -14 -3 -6 -6z"/>
<path d="M1938 1893 c56 -2 148 -2 205 0 56 1 10 3 -103 3 -113 0 -159 -2
-102 -3z"/>
<path d="M2573 1893 c15 -2 37 -2 50 0 12 2 0 4 -28 4 -27 0 -38 -2 -22 -4z"/>
</g>
</svg>
