<?xml version="1.0" standalone="no"?>
<!DOCTYPE svg PUBLIC "-//W3C//DTD SVG 20010904//EN"
 "http://www.w3.org/TR/2001/REC-SVG-20010904/DTD/svg10.dtd">
<svg version="1.0" xmlns="http://www.w3.org/2000/svg"
 width="609.000000pt" height="606.000000pt" viewBox="0 0 609.000000 606.000000"
 preserveAspectRatio="xMidYMid meet">

<g transform="translate(0.000000,606.000000) scale(0.100000,-0.100000)"
fill="#000000" stroke="none">
<path d="M0 3030 l0 -3030 3045 0 3045 0 0 3030 0 3030 -3045 0 -3045 0 0
-3030z m2635 888 c170 -52 276 -141 333 -280 36 -88 36 -216 -1 -305 -48 -117
-110 -187 -227 -251 -92 -51 -151 -64 -325 -71 l-160 -8 231 -1 c172 -2 234
-5 241 -14 6 -7 52 -94 103 -193 51 -99 119 -230 152 -292 32 -61 55 -113 51
-115 -5 -2 -226 -1 -492 2 l-483 5 -112 292 c-61 161 -114 293 -118 293 -4 0
-9 -134 -10 -297 -2 -164 -6 -297 -10 -295 -5 1 -197 2 -428 2 l-420 0 0 768
c0 423 3 772 7 776 4 4 370 5 813 3 689 -3 812 -5 855 -19z m1884 12 c321 -33
554 -211 621 -475 78 -304 -76 -611 -369 -735 -130 -56 -188 -63 -516 -69
l-300 -6 -5 -130 c-3 -71 -8 -129 -12 -127 -5 1 -197 2 -428 2 l-420 0 0 768
c0 423 3 772 7 775 11 11 1311 8 1422 -3z"/>
<path d="M1828 3304 c-5 -4 -8 -70 -8 -146 l0 -138 147 0 c137 0 149 1 188 25
48 28 70 69 67 129 -1 47 -25 83 -73 111 -29 17 -56 21 -174 23 -77 2 -143 0
-147 -4z"/>
<path d="M3958 3384 c-5 -4 -8 -70 -8 -146 l0 -138 127 0 c146 0 197 16 233
74 41 68 19 146 -54 187 -35 20 -58 24 -166 27 -69 2 -128 1 -132 -4z"/>
</g>
</svg>
