<?xml version="1.0" standalone="no"?>
<!DOCTYPE svg PUBLIC "-//W3C//DTD SVG 20010904//EN"
 "http://www.w3.org/TR/2001/REC-SVG-20010904/DTD/svg10.dtd">
<svg version="1.0" xmlns="http://www.w3.org/2000/svg"
 width="591.000000pt" height="586.000000pt" viewBox="0 0 591.000000 586.000000"
 preserveAspectRatio="xMidYMid meet">

<g transform="translate(0.000000,586.000000) scale(0.100000,-0.100000)"
fill="#000000" stroke="none">
<path d="M867 3794 c-4 -4 -7 -353 -7 -776 l0 -768 420 0 c231 0 423 -1 428
-2 4 -2 8 131 10 295 1 163 6 297 10 297 4 0 57 -132 118 -293 l112 -292 483
-5 c266 -3 487 -4 492 -2 4 2 -19 54 -51 115 -33 62 -101 193 -152 292 -51 99
-97 186 -103 193 -7 9 -69 12 -241 14 l-231 1 160 8 c174 7 233 20 325 71 117
64 179 134 227 251 37 89 37 217 1 305 -57 139 -163 228 -333 280 -43 14 -166
16 -855 19 -443 2 -809 1 -813 -3z m1182 -649 c48 -28 72 -64 73 -111 3 -60
-19 -101 -67 -129 -39 -24 -51 -25 -188 -25 l-147 0 0 138 c0 76 3 142 8 146
4 4 70 6 147 4 118 -2 145 -6 174 -23z"/>
<path d="M2997 3793 c-4 -3 -7 -352 -7 -775 l0 -768 420 0 c231 0 423 -1 428
-2 4 -2 9 56 12 127 l5 130 300 6 c328 6 386 13 516 69 293 124 447 431 369
735 -54 210 -219 372 -452 444 -37 11 -113 25 -169 31 -111 11 -1411 14 -1422
3z m1159 -572 c73 -41 95 -119 54 -187 -36 -58 -87 -74 -233 -74 l-127 0 0
138 c0 76 3 142 8 146 4 5 63 6 132 4 108 -3 131 -7 166 -27z"/>
</g>
</svg>
